<?xml version="1.0" encoding="UTF-8" standalone="no"?>
<svg width="730px" height="731px" viewBox="0 0 730 731" version="1.1" xmlns="http://www.w3.org/2000/svg" xmlns:xlink="http://www.w3.org/1999/xlink">
    <!-- Generator: Sketch 41 (35326) - http://www.bohemiancoding.com/sketch -->
    <title>数字球</title>
    <desc>Created with Sketch.</desc>
    <defs>
        <radialGradient cx="26.5321851%" cy="24.2145118%" fx="26.5321851%" fy="24.2145118%" r="100%" id="radialGradient-1">
            <stop stop-color="#E97979" stop-opacity="0.168959466" offset="0%"></stop>
            <stop stop-color="#FFFFFF" offset="100%"></stop>
        </radialGradient>
    </defs>
    <g id="首页" stroke="none" stroke-width="1" fill="none" fill-rule="evenodd">
            <g id="首页框架－1" transform="translate(-260.000000, -24.000000)">
            <g id="数字球" transform="translate(259.000000, 24.000000)">
                <g id="球" transform="translate(70.272102, 71.915082)" stroke="#FFFFFF">
                    <polyline id="Path-4" points="12.0579289 265.296033 9.21907419 239.663309 15.2749547 183.714441 53.6343025 104.254788 117.825943 62.1220375 128.117323 105.163632 160.657498 189.408054 181.458134 256.412809 170.620101 287.860005"></polyline>
                    <polyline id="Path-5" points="118.544019 62.0374043 185.017874 11.5392421 210.13626 59.234881 242.132989 104.836058 286.714171 195.36398 309.697046 259.897834"></polyline>
                    <polyline id="Path-6" points="184.036069 10.2688767 290.030252 1.82331249 313.053268 55.0495723 352.670071 123.499395 373.534401 165.902873 395.672088 207.706776 453.653336 266.823384"></polyline>
                    <polyline id="Path-7" points="184.245592 44.361853 289.405839 1.74570549 363.806931 10.493717 384.819799 40.2349202 436.293476 101.829137 489.062039 222.518132 500.892444 265.942759"></polyline>
                    <polyline id="Path-8" points="364.1905 10.4726383 450.843476 47.2316873 469.042898 83.9696575 540.145749 150.529416 561.415947 244.184775 551.110895 269.09755"></polyline>
                    <polyline id="Path-9" points="437.042237 102.142335 449.361849 47.0852053 526.415052 105.179276 577.530274 181.377039 591.626408 212.334739 597.973125 264.673348"></polyline>
                    <polyline id="Path-10" points="6.8966643 194.452908 117.930756 62.0812676 209.735623 59.743432 288.910185 0.59808306 384.713632 40.2941087 468.969598 84.0499247 525.911061 105.345564 539.011718 147.755749 579.251871 181.833746 561.179562 240.102518 586.298823 275.838075"></polyline>
                    <polyline id="Path-11" points="9.56826184 240.247727 43.0033719 193.576968 81.3565271 112.536954 90.7219397 199.603157 127.958698 105.181618 209.931096 59.3918008 311.808318 52.5194825 385.218497 39.9123485 449.552278 46.8894245 538.912533 147.744993 489.521429 224.204434 440.723518 273.367174"></polyline>
                    <path d="M41.4490285,260.167174 C41.4490285,256.899963 40.6038403,187.829487 40.6038403,187.829487 L54.2877066,104.671997 L127.236746,104.478037 L241.972717,104.377646 L168.517165,186.185342 L286.007246,194.630907 L203.477628,294.35227" id="Path-12"></path>
                    <polyline id="Path-13" points="101.626875 265.169871 92.8672459 198.76469 166.804488 187.651489 95.9781629 280.107699"></polyline>
                    <path d="M12.9846954,169.273135 L42.7580667,194.473987 L76.8950414,139.177668 L127.974892,104.820821 L167.890831,149.644832 L215.514741,134.091062 C215.514741,134.091062 238.714617,196.499892 245.210747,190.567386 C251.706877,184.634881 350.339671,120.459048 350.339671,120.459048 L242.81878,104.146415 L311.643586,52.7385691 L436.228033,101.815288 L395.270679,206.456102 L326.264073,268.106847 M166.753197,266.202731 L192.86483,239.93623 L133.721726,233.40415 L64.458664,222.290949 L106.220791,134.983742 L128.231639,104.518692 L184.541227,11.5353364 L245.62358,32.8957753 L339.514246,21.7561752 L363.377407,10.5964507 L184.689765,11.659758" id="Path-14"></path>
                    <polyline id="Path-15" points="288.281895 194.164831 350.180463 120.735096 418.916461 144.884669 453.984344 140.60695 469.004421 83.7653476 363.193668 9.85166717 300.958397 26.4994217 184.697039 12.5389949 184.074564 44.3632403 117.416095 62.5984355 0.474125969 189.305002"></polyline>
                    <polyline id="Path-16" points="513.27367 264.155747 538.994856 148.431861 454.392546 140.686263 440.647696 197.928741 581.836497 260.270225 588.352697 209.75376"></polyline>
                    <path d="M511.84644,264.115932 C511.84644,259.071077 564.475573,228.649714 559.67205,228.649714 C554.868526,228.649714 507.908175,241.229061 507.908175,241.229061 L506.215568,90.1527661" id="Path-17"></path>
                </g>
                <g id="球上点" transform="translate(76.059802, 69.623287)" fill="#FFFFFF">
                    <ellipse id="Oval" cx="178.839929" cy="13.9804959" rx="2.89384999" ry="3.03923824"></ellipse>
                    <ellipse id="Oval-Copy" cx="48.0379098" cy="106.981186" rx="2.89384999" ry="3.03923824"></ellipse>
                    <ellipse id="Oval-Copy-2" cx="122.12047" cy="106.981186" rx="2.89384999" ry="3.03923824"></ellipse>
                    <ellipse id="Oval-Copy-10" cx="86.8154997" cy="200.589724" rx="2.89384999" ry="3.03923824"></ellipse>
                    <ellipse id="Oval-Copy-3" cx="344.368149" cy="122.785225" rx="2.89384999" ry="3.03923824"></ellipse>
                    <ellipse id="Oval-Copy-4" cx="280.703449" cy="197.550486" rx="2.89384999" ry="3.03923824"></ellipse>
                    <ellipse id="Oval-Copy-5" cx="236.716929" cy="106.981186" rx="2.89384999" ry="3.03923824"></ellipse>
                    <ellipse id="Oval-Copy-24" cx="111.70261" cy="64.4318507" rx="2.89384999" ry="3.03923824"></ellipse>
                    <ellipse id="Oval-Copy-11" cx="283.597299" cy="3.03923824" rx="2.89384999" ry="3.03923824"></ellipse>
                    <ellipse id="Oval-Copy-12" cx="358.020646" cy="12.7560072" rx="2.89384999" ry="3.03923824"></ellipse>
                    <ellipse id="Oval-Copy-13" cx="305.590559" cy="55.314136" rx="2.89384999" ry="3.03923824"></ellipse>
                    <ellipse id="Oval-Copy-14" cx="379.094349" cy="42.5493354" rx="2.89384999" ry="3.03923824"></ellipse>
                    <ellipse id="Oval-Copy-15" cx="443.916589" cy="49.2356595" rx="2.89384999" ry="3.03923824"></ellipse>
                    <ellipse id="Oval-Copy-16" cx="520.314228" cy="106.981186" rx="2.89384999" ry="3.03923824"></ellipse>
                    <ellipse id="Oval-Copy-17" cx="533.047168" cy="150.138369" rx="2.89384999" ry="3.03923824"></ellipse>
                    <ellipse id="Oval-Copy-18" cx="572.403528" cy="181.138599" rx="2.89384999" ry="3.03923824"></ellipse>
                    <ellipse id="Oval-Copy-19" cx="586.294008" cy="213.354525" rx="2.89384999" ry="3.03923824"></ellipse>
                    <ellipse id="Oval-Copy-20" cx="482.694178" cy="226.119325" rx="2.89384999" ry="3.03923824"></ellipse>
                    <ellipse id="Oval-Copy-21" cx="430.604879" cy="103.941948" rx="2.89384999" ry="3.03923824"></ellipse>
                    <ellipse id="Oval-Copy-22" cx="388.933439" cy="210.315286" rx="2.89384999" ry="3.03923824"></ellipse>
                    <ellipse id="Oval-Copy-23" cx="554.461658" cy="243.746907" rx="2.89384999" ry="3.03923824"></ellipse>
                    <ellipse id="Oval-Copy-6" cx="159.740519" cy="191.472009" rx="2.89384999" ry="3.03923824"></ellipse>
                    <ellipse id="Oval-Copy-7" cx="12.73294" cy="175.060123" rx="2.89384999" ry="3.03923824"></ellipse>
                    <ellipse id="Oval-Copy-25" cx="2.89384999" cy="240.707669" rx="2.89384999" ry="3.03923824"></ellipse>
                    <ellipse id="Oval-Copy-9" cx="35.3049699" cy="197.550486" rx="2.89384999" ry="3.03923824"></ellipse>
                </g>
                <g id="球-copy" transform="translate(363.820753, 468.091973) rotate(180.000000) translate(-363.820753, -468.091973) translate(59.320753, 258.091973)" stroke="#FFFFFF">
                    <polyline id="Path-4" points="13.0096223 265.296033 10.1707677 239.663309 16.2266482 183.714441 54.585996 104.254788 118.777637 62.1220375 129.069017 105.163632 161.609192 189.408054 182.409827 256.412809 171.571794 287.860005 11.8529085 330.535946 0.448093021 342.592538 0.584752031 190.011321"></polyline>
                    <polyline id="Path-5" points="119.495712 62.0374043 185.969567 11.5392421 211.087953 59.234881 243.084683 104.836058 287.665864 195.36398 310.648739 259.897834"></polyline>
                    <polyline id="Path-6" points="184.987763 10.2688767 290.981946 1.82331249 314.004962 55.0495723 353.621765 123.499395 374.486094 165.902873 396.623781 207.706776 454.60503 266.823384"></polyline>
                    <polyline id="Path-7" points="185.197285 44.361853 290.357532 1.74570549 364.758625 10.493717 385.771492 40.2349202 437.245169 101.829137 490.013732 222.518132 501.844137 265.942759"></polyline>
                    <polyline id="Path-8" points="365.142193 10.4726383 451.795169 47.2316873 469.994591 83.9696575 541.097443 150.529416 562.367641 244.184775 552.062589 269.09755"></polyline>
                    <polyline id="Path-9" points="437.993931 102.142335 450.313543 47.0852053 527.366745 105.179276 578.481968 181.377039 592.578101 212.334739 598.924818 264.673348"></polyline>
                    <polyline id="Path-10" points="7.84835778 194.452908 118.882449 62.0812676 210.687317 59.743432 289.861878 0.59808306 385.665325 40.2941087 469.921291 84.0499247 526.862754 105.345564 539.963412 147.755749 580.203565 181.833746 562.131256 240.102518 587.250517 275.838075"></polyline>
                    <polyline id="Path-11" points="10.5199553 240.247727 43.9550654 193.576968 82.3082206 112.536954 91.6736332 199.603157 128.910392 105.181618 210.882789 59.3918008 312.760012 52.5194825 386.170191 39.9123485 450.503972 46.8894245 539.864226 147.744993 490.473122 224.204434 441.675211 273.367174 508.750682 240.874908 551.277116 268.768735 584.999639 342.923255 607.975699 343.4215"></polyline>
                    <path d="M42.400722,260.167174 C42.400722,256.899963 41.5555338,187.829487 41.5555338,187.829487 L55.2394001,104.671997 L128.18844,104.478037 L242.924411,104.377646 L169.468859,186.185342 L286.958939,194.630907 L204.429322,294.35227 L325.706245,269.880607 L433.62531,313.052184 L495.769533,341.071883 L557.51426,346.374254 L596.889662,419.532286 L608.757214,344.022016 L600.657417,265.168262" id="Path-12"></path>
                    <polyline id="Path-13" points="102.578568 265.169871 93.8189394 198.76469 167.756182 187.651489 96.9298564 280.107699"></polyline>
                    <path d="M13.9363889,169.273135 L43.7097601,194.473987 L77.8467349,139.177668 L128.926586,104.820821 L168.842524,149.644832 L216.466435,134.091062 C216.466435,134.091062 239.666311,196.499892 246.16244,190.567386 C252.65857,184.634881 351.291365,120.459048 351.291365,120.459048 L243.770474,104.146415 L312.59528,52.7385691 L437.179726,101.815288 L396.222372,206.456102 L327.215766,268.106847 L289.88886,346.733515 L146.142423,339.810538 L96.8594995,341.132197 L43.9536396,261.803801 L20.568096,342.000192 L96.7621222,280.889188 L170.376897,286.188937 L168.459313,266.605304 L132.919079,233.06558 L285.382037,194.223485 M167.704891,266.202731 L193.816523,239.93623 L134.673419,233.40415 L65.4103575,222.290949 L107.172484,134.983742 L129.183333,104.518692 L185.49292,11.5353364 L246.575274,32.8957753 L340.46594,21.7561752 L364.3291,10.5964507 L185.641459,11.659758" id="Path-14"></path>
                    <polyline id="Path-15" points="289.233588 194.164831 351.132156 120.735096 419.868155 144.884669 454.936038 140.60695 469.956114 83.7653476 364.145362 9.85166717 301.91009 26.4994217 185.648732 12.5389949 185.026257 44.3632403 118.367788 62.5984355 1.42581945 189.305002 13.4695373 262.739976 13.3047449 331.141083 42.3756273 261.767088 102.767058 265.275778 171.974884 287.521085 204.032005 293.515754 307.686442 258.677972 441.834969 273.481079 503.130262 326.756531 585.603878 276.315828 585.129476 340.240602"></polyline>
                    <polyline id="Path-16" points="514.225364 264.155747 539.946549 148.431861 455.344239 140.686263 441.599389 197.928741 582.788191 260.270225 589.304391 209.75376 556.717763 345.920589 550.745286 268.283602 432.279505 341.488835 442.703875 273.457478 501.155249 265.666507 426.756462 320.43407 394.347284 312.299573 309.172071 258.400004 289.127319 347.032461 203.500175 293.953685 156.09239 335.955699 97.0667385 280.411923 42.2208223 259.336179 12.6530658 262.669173 1.27989139 342.495814 97.6859585 342.02117"></polyline>
                    <path d="M552.508065,268.60615 L587.199368,275.725802 L599.805989,264.184885 L587.176897,341.174155 L557.489291,346.625999 L502.640878,327.493409 C502.640878,327.493409 512.798133,269.160786 512.798133,264.115932 C512.798133,259.071077 565.427267,228.649714 560.623743,228.649714 C555.82022,228.649714 508.859868,241.229061 508.859868,241.229061 L507.167262,90.1527661" id="Path-17"></path>
                </g>
                <g id="球上点-copy" transform="translate(366.058251, 555.289954) rotate(540.000000) translate(-366.058251, -555.289954) translate(71.058251, 431.789954)" fill="#FFFFFF">
                    <ellipse id="Oval" cx="178.839929" cy="13.9804959" rx="2.89384999" ry="3.03923824"></ellipse>
                    <ellipse id="Oval-Copy" cx="48.0379098" cy="106.981186" rx="2.89384999" ry="3.03923824"></ellipse>
                    <ellipse id="Oval-Copy-2" cx="122.12047" cy="106.981186" rx="2.89384999" ry="3.03923824"></ellipse>
                    <ellipse id="Oval-Copy-10" cx="86.8154997" cy="200.589724" rx="2.89384999" ry="3.03923824"></ellipse>
                    <ellipse id="Oval-Copy-3" cx="344.368149" cy="122.785225" rx="2.89384999" ry="3.03923824"></ellipse>
                    <ellipse id="Oval-Copy-4" cx="280.703449" cy="197.550486" rx="2.89384999" ry="3.03923824"></ellipse>
                    <ellipse id="Oval-Copy-5" cx="236.716929" cy="106.981186" rx="2.89384999" ry="3.03923824"></ellipse>
                    <ellipse id="Oval-Copy-24" cx="111.70261" cy="64.4318507" rx="2.89384999" ry="3.03923824"></ellipse>
                    <ellipse id="Oval-Copy-11" cx="283.597299" cy="3.03923824" rx="2.89384999" ry="3.03923824"></ellipse>
                    <ellipse id="Oval-Copy-12" cx="358.020646" cy="12.7560072" rx="2.89384999" ry="3.03923824"></ellipse>
                    <ellipse id="Oval-Copy-13" cx="305.590559" cy="55.314136" rx="2.89384999" ry="3.03923824"></ellipse>
                    <ellipse id="Oval-Copy-14" cx="379.094349" cy="42.5493354" rx="2.89384999" ry="3.03923824"></ellipse>
                    <ellipse id="Oval-Copy-15" cx="443.916589" cy="49.2356595" rx="2.89384999" ry="3.03923824"></ellipse>
                    <ellipse id="Oval-Copy-16" cx="520.314228" cy="106.981186" rx="2.89384999" ry="3.03923824"></ellipse>
                    <ellipse id="Oval-Copy-17" cx="533.047168" cy="150.138369" rx="2.89384999" ry="3.03923824"></ellipse>
                    <ellipse id="Oval-Copy-18" cx="572.403528" cy="181.138599" rx="2.89384999" ry="3.03923824"></ellipse>
                    <ellipse id="Oval-Copy-19" cx="586.294008" cy="213.354525" rx="2.89384999" ry="3.03923824"></ellipse>
                    <ellipse id="Oval-Copy-20" cx="482.694178" cy="226.119325" rx="2.89384999" ry="3.03923824"></ellipse>
                    <ellipse id="Oval-Copy-21" cx="430.604879" cy="103.941948" rx="2.89384999" ry="3.03923824"></ellipse>
                    <ellipse id="Oval-Copy-22" cx="388.933439" cy="210.315286" rx="2.89384999" ry="3.03923824"></ellipse>
                    <ellipse id="Oval-Copy-23" cx="554.461658" cy="243.746907" rx="2.89384999" ry="3.03923824"></ellipse>
                    <ellipse id="Oval-Copy-6" cx="159.740519" cy="191.472009" rx="2.89384999" ry="3.03923824"></ellipse>
                    <ellipse id="Oval-Copy-7" cx="12.73294" cy="175.060123" rx="2.89384999" ry="3.03923824"></ellipse>
                    <ellipse id="Oval-Copy-25" cx="2.89384999" cy="240.707669" rx="2.89384999" ry="3.03923824"></ellipse>
                    <ellipse id="Oval-Copy-9" cx="35.3049699" cy="197.550486" rx="2.89384999" ry="3.03923824"></ellipse>
                </g>
                <g id="内部点-copy" transform="translate(354.543259, 539.819018) rotate(180.000000) translate(-354.543259, -539.819018) translate(98.543259, 372.819018)" fill="#D8D8D8">
                    <g id="Group-3-Copy-2" transform="translate(71.474364, 179.562579) rotate(467.000000) translate(-71.474364, -179.562579) translate(-26.025636, 135.062579)">
                        <ellipse id="Oval-Copy-8" cx="94.3395097" cy="48.0199642" rx="2.31507999" ry="2.43139059"></ellipse>
                        <ellipse id="Oval-Copy-38" cx="49.1954498" cy="69.9024796" rx="2.31507999" ry="2.43139059"></ellipse>
                        <ellipse id="Oval-Copy-26" cx="153.952819" cy="50.4513548" rx="2.31507999" ry="2.43139059"></ellipse>
                        <ellipse id="Oval-Copy-37" cx="2.31507999" cy="50.4513548" rx="2.31507999" ry="2.43139059"></ellipse>
                        <ellipse id="Oval-Copy-28" cx="21.9932599" cy="62.0004601" rx="2.31507999" ry="2.43139059"></ellipse>
                        <ellipse id="Oval-Copy-29" cx="15.6267899" cy="85.7065184" rx="2.31507999" ry="2.43139059"></ellipse>
                        <ellipse id="Oval-Copy-30" cx="74.0825598" cy="66.8632413" rx="2.31507999" ry="2.43139059"></ellipse>
                        <ellipse id="Oval-Copy-32" cx="130.22325" cy="64.4318507" rx="2.31507999" ry="2.43139059"></ellipse>
                        <ellipse id="Oval-Copy-34" cx="182.891319" cy="66.8632413" rx="2.31507999" ry="2.43139059"></ellipse>
                        <g id="Group-2" transform="translate(82.764110, -0.000000)">
                            <ellipse id="Oval-Copy-27" cx="86.2108196" cy="38.2174591" rx="1.13162988" ry="1.13875256"></ellipse>
                            <ellipse id="Oval-Copy-31" cx="70.0052596" cy="9.04077198" rx="1.13162988" ry="1.13875256"></ellipse>
                            <ellipse id="Oval-Copy-33" cx="110.57098" cy="19.458819" rx="1.13162988" ry="1.13875256"></ellipse>
                            <ellipse id="Oval-Copy-35" cx="1.13162988" cy="13.2957055" rx="1.13162988" ry="1.13875256"></ellipse>
                            <ellipse id="Oval-Copy-36" cx="32.9639798" cy="1.13875256" rx="1.13162988" ry="1.13875256"></ellipse>
                        </g>
                        <g id="Group-2-Copy" transform="translate(29.101510, 0.000000)">
                            <ellipse id="Oval-Copy-27" cx="1.81490665" cy="38.9791922" rx="1.13162988" ry="1.13875256"></ellipse>
                            <ellipse id="Oval-Copy-31" cx="32.6518208" cy="38.9791922" rx="1.13162988" ry="1.13875256"></ellipse>
                            <ellipse id="Oval-Copy-33" cx="87.2053498" cy="34.5703732" rx="1.13162988" ry="1.13875256"></ellipse>
                            <ellipse id="Oval-Copy-35" cx="38.850508" cy="61.6816973" rx="1.13162988" ry="1.13875256"></ellipse>
                            <ellipse id="Oval-Copy-36" cx="22.38311" cy="1.13875256" rx="1.13162988" ry="1.13875256"></ellipse>
                        </g>
                    </g>
                    <g id="Group-3-Copy-5" transform="translate(168.053830, 79.669148) rotate(533.000000) translate(-168.053830, -79.669148) translate(20.553830, 29.169148)">
                        <ellipse id="Oval-Copy-8" cx="123.31077" cy="57.5600481" rx="2.31507999" ry="2.43139059"></ellipse>
                        <ellipse id="Oval-Copy-38" cx="49.1954498" cy="81.8615798" rx="2.31507999" ry="2.43139059"></ellipse>
                        <ellipse id="Oval-Copy-26" cx="153.952819" cy="62.410455" rx="2.31507999" ry="2.43139059"></ellipse>
                        <ellipse id="Oval-Copy-37" cx="2.31507999" cy="62.410455" rx="2.31507999" ry="2.43139059"></ellipse>
                        <ellipse id="Oval-Copy-28" cx="21.9932599" cy="73.9595603" rx="2.31507999" ry="2.43139059"></ellipse>
                        <ellipse id="Oval-Copy-29" cx="15.6267899" cy="97.6656186" rx="2.31507999" ry="2.43139059"></ellipse>
                        <ellipse id="Oval-Copy-30" cx="74.0825598" cy="78.8223415" rx="2.31507999" ry="2.43139059"></ellipse>
                        <ellipse id="Oval-Copy-32" cx="132.551961" cy="79.4180982" rx="2.31507999" ry="2.43139059"></ellipse>
                        <ellipse id="Oval-Copy-34" cx="182.891319" cy="78.8223415" rx="2.31507999" ry="2.43139059"></ellipse>
                        <g id="Group-2" transform="translate(82.764110, -0.000000)">
                            <ellipse id="Oval-Copy-27" cx="65.2164149" cy="75.8859145" rx="1.87716676" ry="1.88898199"></ellipse>
                            <ellipse id="Oval-Copy-39" cx="2.58884371" cy="92.3296773" rx="1.87716676" ry="1.88898199"></ellipse>
                            <ellipse id="Oval-Copy-31" cx="210.364652" cy="1.13875256" rx="1.13162988" ry="1.13875256"></ellipse>
                            <ellipse id="Oval-Copy-33" cx="110.57098" cy="31.4179192" rx="1.13162988" ry="1.13875256"></ellipse>
                            <ellipse id="Oval-Copy-35" cx="1.13162988" cy="25.2548057" rx="1.13162988" ry="1.13875256"></ellipse>
                            <ellipse id="Oval-Copy-36" cx="32.9639798" cy="13.0978528" rx="1.13162988" ry="1.13875256"></ellipse>
                        </g>
                        <g id="Group-2-Copy" transform="translate(12.732940, 11.959100)">
                            <ellipse id="Oval-Copy-27" cx="18.1834764" cy="38.9791922" rx="1.13162988" ry="1.13875256"></ellipse>
                            <ellipse id="Oval-Copy-31" cx="49.0203905" cy="38.9791922" rx="1.13162988" ry="1.13875256"></ellipse>
                            <ellipse id="Oval-Copy-33" cx="103.57392" cy="34.5703732" rx="1.13162988" ry="1.13875256"></ellipse>
                            <ellipse id="Oval-Copy-35" cx="1.13162988" cy="14.5114008" rx="1.13162988" ry="1.13875256"></ellipse>
                            <ellipse id="Oval-Copy-36" cx="38.7516798" cy="1.13875256" rx="1.13162988" ry="1.13875256"></ellipse>
                        </g>
                    </g>
                    <g id="Group-3-Copy-6" transform="translate(399.810554, 105.613193) rotate(221.000000) translate(-399.810554, -105.613193) translate(291.310554, 60.113193)">
                        <ellipse id="Oval-Copy-8" cx="94.3395097" cy="48.0199642" rx="2.31507999" ry="2.43139059"></ellipse>
                        <ellipse id="Oval-Copy-38" cx="78.4645132" cy="88.3874233" rx="2.31507999" ry="2.43139059"></ellipse>
                        <ellipse id="Oval-Copy-26" cx="153.952819" cy="50.4513548" rx="2.31507999" ry="2.43139059"></ellipse>
                        <ellipse id="Oval-Copy-37" cx="2.31507999" cy="50.4513548" rx="2.31507999" ry="2.43139059"></ellipse>
                        <ellipse id="Oval-Copy-28" cx="21.9932599" cy="62.0004601" rx="2.31507999" ry="2.43139059"></ellipse>
                        <ellipse id="Oval-Copy-29" cx="15.6267899" cy="85.7065184" rx="2.31507999" ry="2.43139059"></ellipse>
                        <ellipse id="Oval-Copy-30" cx="74.0825598" cy="66.8632413" rx="2.31507999" ry="2.43139059"></ellipse>
                        <ellipse id="Oval-Copy-32" cx="130.22325" cy="64.4318507" rx="2.31507999" ry="2.43139059"></ellipse>
                        <ellipse id="Oval-Copy-34" cx="182.891319" cy="66.8632413" rx="2.31507999" ry="2.43139059"></ellipse>
                        <g id="Group-2" transform="translate(82.764110, -0.000000)">
                            <ellipse id="Oval-Copy-27" cx="132.080188" cy="46.7328221" rx="1.13162988" ry="1.13875256"></ellipse>
                            <ellipse id="Oval-Copy-31" cx="70.0052596" cy="9.04077198" rx="1.13162988" ry="1.13875256"></ellipse>
                            <ellipse id="Oval-Copy-33" cx="110.57098" cy="19.458819" rx="1.13162988" ry="1.13875256"></ellipse>
                            <ellipse id="Oval-Copy-35" cx="1.13162988" cy="13.2957055" rx="1.13162988" ry="1.13875256"></ellipse>
                            <ellipse id="Oval-Copy-36" cx="32.9639798" cy="1.13875256" rx="1.13162988" ry="1.13875256"></ellipse>
                        </g>
                        <g id="Group-2-Copy" transform="translate(12.732940, -0.000000)">
                            <ellipse id="Oval-Copy-27" cx="18.1834764" cy="38.9791922" rx="1.13162988" ry="1.13875256"></ellipse>
                            <ellipse id="Oval-Copy-31" cx="49.0203905" cy="38.9791922" rx="1.13162988" ry="1.13875256"></ellipse>
                            <ellipse id="Oval-Copy-33" cx="103.57392" cy="34.5703732" rx="1.13162988" ry="1.13875256"></ellipse>
                            <ellipse id="Oval-Copy-35" cx="1.13162988" cy="14.5114008" rx="1.13162988" ry="1.13875256"></ellipse>
                            <ellipse id="Oval-Copy-36" cx="38.7516798" cy="1.13875256" rx="1.13162988" ry="1.13875256"></ellipse>
                        </g>
                    </g>
                    <g id="Group-3-Copy-7" transform="translate(315.406622, 183.013418) rotate(221.000000) translate(-315.406622, -183.013418) translate(198.406622, 126.513418)">
                        <ellipse id="Oval-Copy-8" cx="94.3395097" cy="72.6856084" rx="2.31507999" ry="2.43139059"></ellipse>
                        <ellipse id="Oval-Copy-38" cx="49.1954498" cy="94.5681237" rx="2.31507999" ry="2.43139059"></ellipse>
                        <ellipse id="Oval-Copy-26" cx="153.952819" cy="75.116999" rx="2.31507999" ry="2.43139059"></ellipse>
                        <ellipse id="Oval-Copy-37" cx="2.31507999" cy="75.116999" rx="2.31507999" ry="2.43139059"></ellipse>
                        <ellipse id="Oval-Copy-28" cx="21.9932599" cy="86.6661043" rx="2.31507999" ry="2.43139059"></ellipse>
                        <ellipse id="Oval-Copy-29" cx="15.6267899" cy="110.372163" rx="2.31507999" ry="2.43139059"></ellipse>
                        <ellipse id="Oval-Copy-30" cx="74.0825598" cy="91.5288855" rx="2.31507999" ry="2.43139059"></ellipse>
                        <ellipse id="Oval-Copy-32" cx="130.22325" cy="89.0974949" rx="2.31507999" ry="2.43139059"></ellipse>
                        <ellipse id="Oval-Copy-34" cx="230.76338" cy="2.43139059" rx="2.31507999" ry="2.43139059"></ellipse>
                        <g id="Group-2" transform="translate(82.764110, 24.665644)">
                            <ellipse id="Oval-Copy-27" cx="86.2108196" cy="38.2174591" rx="1.13162988" ry="1.13875256"></ellipse>
                            <ellipse id="Oval-Copy-31" cx="70.0052596" cy="9.04077198" rx="1.13162988" ry="1.13875256"></ellipse>
                            <ellipse id="Oval-Copy-33" cx="110.57098" cy="19.458819" rx="1.13162988" ry="1.13875256"></ellipse>
                            <ellipse id="Oval-Copy-35" cx="1.13162988" cy="13.2957055" rx="1.13162988" ry="1.13875256"></ellipse>
                            <ellipse id="Oval-Copy-36" cx="32.9639798" cy="1.13875256" rx="1.13162988" ry="1.13875256"></ellipse>
                        </g>
                        <g id="Group-2-Copy" transform="translate(12.732940, 24.665644)">
                            <ellipse id="Oval-Copy-27" cx="18.1834764" cy="38.9791922" rx="1.13162988" ry="1.13875256"></ellipse>
                            <ellipse id="Oval-Copy-31" cx="49.0203905" cy="38.9791922" rx="1.13162988" ry="1.13875256"></ellipse>
                            <ellipse id="Oval-Copy-33" cx="103.57392" cy="34.5703732" rx="1.13162988" ry="1.13875256"></ellipse>
                            <ellipse id="Oval-Copy-35" cx="1.13162988" cy="14.5114008" rx="1.13162988" ry="1.13875256"></ellipse>
                            <ellipse id="Oval-Copy-36" cx="38.7516798" cy="1.13875256" rx="1.13162988" ry="1.13875256"></ellipse>
                        </g>
                    </g>
                    <g id="Group-3-Copy-8" transform="translate(199.130347, 235.503358) rotate(221.000000) translate(-199.130347, -235.503358) translate(101.630347, 191.003358)">
                        <ellipse id="Oval-Copy-8" cx="94.3395097" cy="48.0199642" rx="2.31507999" ry="2.43139059"></ellipse>
                        <ellipse id="Oval-Copy-38" cx="49.1954498" cy="69.9024796" rx="2.31507999" ry="2.43139059"></ellipse>
                        <ellipse id="Oval-Copy-26" cx="153.952819" cy="50.4513548" rx="2.31507999" ry="2.43139059"></ellipse>
                        <ellipse id="Oval-Copy-37" cx="2.31507999" cy="50.4513548" rx="2.31507999" ry="2.43139059"></ellipse>
                        <ellipse id="Oval-Copy-28" cx="21.9932599" cy="62.0004601" rx="2.31507999" ry="2.43139059"></ellipse>
                        <ellipse id="Oval-Copy-29" cx="15.6267899" cy="85.7065184" rx="2.31507999" ry="2.43139059"></ellipse>
                        <ellipse id="Oval-Copy-30" cx="74.0825598" cy="66.8632413" rx="2.31507999" ry="2.43139059"></ellipse>
                        <ellipse id="Oval-Copy-32" cx="130.22325" cy="64.4318507" rx="2.31507999" ry="2.43139059"></ellipse>
                        <ellipse id="Oval-Copy-34" cx="182.891319" cy="66.8632413" rx="2.31507999" ry="2.43139059"></ellipse>
                        <g id="Group-2" transform="translate(82.764110, -0.000000)">
                            <ellipse id="Oval-Copy-27" cx="86.2108196" cy="38.2174591" rx="1.13162988" ry="1.13875256"></ellipse>
                            <ellipse id="Oval-Copy-31" cx="70.0052596" cy="9.04077198" rx="1.13162988" ry="1.13875256"></ellipse>
                            <ellipse id="Oval-Copy-33" cx="110.57098" cy="19.458819" rx="1.13162988" ry="1.13875256"></ellipse>
                            <ellipse id="Oval-Copy-35" cx="1.13162988" cy="13.2957055" rx="1.13162988" ry="1.13875256"></ellipse>
                            <ellipse id="Oval-Copy-36" cx="32.9639798" cy="1.13875256" rx="1.13162988" ry="1.13875256"></ellipse>
                        </g>
                        <g id="Group-2-Copy" transform="translate(12.732940, 0.000000)">
                            <ellipse id="Oval-Copy-27" cx="18.1834764" cy="38.9791922" rx="1.13162988" ry="1.13875256"></ellipse>
                            <ellipse id="Oval-Copy-31" cx="49.0203905" cy="38.9791922" rx="1.13162988" ry="1.13875256"></ellipse>
                            <ellipse id="Oval-Copy-33" cx="103.57392" cy="34.5703732" rx="1.13162988" ry="1.13875256"></ellipse>
                            <ellipse id="Oval-Copy-35" cx="1.13162988" cy="14.5114008" rx="1.13162988" ry="1.13875256"></ellipse>
                            <ellipse id="Oval-Copy-36" cx="38.7516798" cy="1.13875256" rx="1.13162988" ry="1.13875256"></ellipse>
                        </g>
                    </g>
                </g>
                <g id="外轮廓点-copy" transform="translate(368.000000, 526.500000) rotate(180.000000) translate(-368.000000, -526.500000) translate(4.000000, 322.000000)">
                    <g id="Group-3" transform="translate(218.437222, -0.000000)">
                        <g id="1" transform="translate(0.000000, 58.295118)" fill="#FFFFFF">
                            <circle id="Oval-Copy-8" cx="163" cy="4" r="4"></circle>
                            <circle id="Oval-Copy-38" cx="85" cy="40" r="4"></circle>
                            <circle id="Oval-Copy-26" cx="266" cy="8" r="4"></circle>
                            <circle id="Oval-Copy-37" cx="4" cy="8" r="4"></circle>
                            <circle id="Oval-Copy-28" cx="38" cy="27" r="4"></circle>
                            <circle id="Oval-Copy-29" cx="27" cy="66" r="4"></circle>
                            <circle id="Oval-Copy-30" cx="128" cy="35" r="4"></circle>
                            <circle id="Oval-Copy-32" cx="225" cy="31" r="4"></circle>
                            <circle id="Oval-Copy-34" cx="316" cy="35" r="4"></circle>
                        </g>
                        <g id="Group-2" transform="translate(82.764110, 0.000000)" fill="#D8D8D8">
                            <ellipse id="Oval-Copy-27" cx="86.2108196" cy="38.2174591" rx="1.13162988" ry="1.13875256"></ellipse>
                            <ellipse id="Oval-Copy-31" cx="70.0052596" cy="9.04077198" rx="1.13162988" ry="1.13875256"></ellipse>
                            <ellipse id="Oval-Copy-33" cx="110.57098" cy="19.458819" rx="1.13162988" ry="1.13875256"></ellipse>
                            <ellipse id="Oval-Copy-35" cx="1.13162988" cy="13.2957055" rx="1.13162988" ry="1.13875256"></ellipse>
                            <ellipse id="Oval-Copy-36" cx="32.9639798" cy="1.13875256" rx="1.13162988" ry="1.13875256"></ellipse>
                        </g>
                        <g id="Group-2-Copy" transform="translate(12.732940, 0.000000)" fill="#D8D8D8">
                            <ellipse id="Oval-Copy-27" cx="18.1834764" cy="38.9791922" rx="1.13162988" ry="1.13875256"></ellipse>
                            <ellipse id="Oval-Copy-31" cx="49.0203905" cy="38.9791922" rx="1.13162988" ry="1.13875256"></ellipse>
                            <ellipse id="Oval-Copy-33" cx="103.57392" cy="34.5703732" rx="1.13162988" ry="1.13875256"></ellipse>
                            <ellipse id="Oval-Copy-35" cx="1.13162988" cy="14.5114008" rx="1.13162988" ry="1.13875256"></ellipse>
                            <ellipse id="Oval-Copy-36" cx="38.7516798" cy="1.13875256" rx="1.13162988" ry="1.13875256"></ellipse>
                        </g>
                    </g>
                    <g id="Group-3-Copy-3" transform="translate(144.524567, 139.068466) rotate(321.000000) translate(-144.524567, -139.068466) translate(47.024567, 94.568466)" fill="#D8D8D8">
                        <ellipse id="Oval-Copy-8" cx="94.3395097" cy="48.0199642" rx="2.31507999" ry="2.43139059"></ellipse>
                        <ellipse id="Oval-Copy-38" cx="49.1954498" cy="69.9024796" rx="2.31507999" ry="2.43139059"></ellipse>
                        <ellipse id="Oval-Copy-26" cx="153.952819" cy="50.4513548" rx="2.31507999" ry="2.43139059"></ellipse>
                        <ellipse id="Oval-Copy-37" cx="2.31507999" cy="50.4513548" rx="2.31507999" ry="2.43139059"></ellipse>
                        <ellipse id="Oval-Copy-28" cx="21.9932599" cy="62.0004601" rx="2.31507999" ry="2.43139059"></ellipse>
                        <ellipse id="Oval-Copy-29" cx="15.6267899" cy="85.7065184" rx="2.31507999" ry="2.43139059"></ellipse>
                        <ellipse id="Oval-Copy-30" cx="74.0825598" cy="66.8632413" rx="2.31507999" ry="2.43139059"></ellipse>
                        <ellipse id="Oval-Copy-32" cx="130.22325" cy="64.4318507" rx="2.31507999" ry="2.43139059"></ellipse>
                        <ellipse id="Oval-Copy-34" cx="182.891319" cy="66.8632413" rx="2.31507999" ry="2.43139059"></ellipse>
                        <g id="Group-2" transform="translate(82.764110, -0.000000)">
                            <ellipse id="Oval-Copy-27" cx="86.2108196" cy="38.2174591" rx="1.13162988" ry="1.13875256"></ellipse>
                            <ellipse id="Oval-Copy-31" cx="70.0052596" cy="9.04077198" rx="1.13162988" ry="1.13875256"></ellipse>
                            <ellipse id="Oval-Copy-33" cx="110.57098" cy="19.458819" rx="1.13162988" ry="1.13875256"></ellipse>
                            <ellipse id="Oval-Copy-35" cx="1.13162988" cy="13.2957055" rx="1.13162988" ry="1.13875256"></ellipse>
                            <ellipse id="Oval-Copy-36" cx="32.9639798" cy="1.13875256" rx="1.13162988" ry="1.13875256"></ellipse>
                        </g>
                        <g id="Group-2-Copy" transform="translate(12.732940, 0.000000)">
                            <ellipse id="Oval-Copy-27" cx="18.1834764" cy="38.9791922" rx="1.13162988" ry="1.13875256"></ellipse>
                            <ellipse id="Oval-Copy-31" cx="49.0203905" cy="38.9791922" rx="1.13162988" ry="1.13875256"></ellipse>
                            <ellipse id="Oval-Copy-33" cx="103.57392" cy="34.5703732" rx="1.13162988" ry="1.13875256"></ellipse>
                            <ellipse id="Oval-Copy-35" cx="1.13162988" cy="14.5114008" rx="1.13162988" ry="1.13875256"></ellipse>
                            <ellipse id="Oval-Copy-36" cx="38.7516798" cy="1.13875256" rx="1.13162988" ry="1.13875256"></ellipse>
                        </g>
                    </g>
                    <g id="Group-3-Copy-4" transform="translate(46.462654, 309.840503) rotate(271.000000) translate(-46.462654, -309.840503) translate(-51.037346, 265.340503)" fill="#D8D8D8">
                        <ellipse id="Oval-Copy-8" cx="94.3395097" cy="48.0199642" rx="2.31507999" ry="2.43139059"></ellipse>
                        <ellipse id="Oval-Copy-38" cx="49.1954498" cy="69.9024796" rx="2.31507999" ry="2.43139059"></ellipse>
                        <ellipse id="Oval-Copy-26" cx="153.952819" cy="50.4513548" rx="2.31507999" ry="2.43139059"></ellipse>
                        <ellipse id="Oval-Copy-37" cx="2.31507999" cy="50.4513548" rx="2.31507999" ry="2.43139059"></ellipse>
                        <ellipse id="Oval-Copy-28" cx="21.9932599" cy="62.0004601" rx="2.31507999" ry="2.43139059"></ellipse>
                        <ellipse id="Oval-Copy-29" cx="15.6267899" cy="85.7065184" rx="2.31507999" ry="2.43139059"></ellipse>
                        <ellipse id="Oval-Copy-30" cx="74.0825598" cy="66.8632413" rx="2.31507999" ry="2.43139059"></ellipse>
                        <ellipse id="Oval-Copy-32" cx="130.22325" cy="64.4318507" rx="2.31507999" ry="2.43139059"></ellipse>
                        <ellipse id="Oval-Copy-34" cx="182.891319" cy="66.8632413" rx="2.31507999" ry="2.43139059"></ellipse>
                        <g id="Group-2" transform="translate(82.764110, -0.000000)">
                            <ellipse id="Oval-Copy-27" cx="86.2108196" cy="38.2174591" rx="1.13162988" ry="1.13875256"></ellipse>
                            <ellipse id="Oval-Copy-31" cx="70.0052596" cy="9.04077198" rx="1.13162988" ry="1.13875256"></ellipse>
                            <ellipse id="Oval-Copy-33" cx="110.57098" cy="19.458819" rx="1.13162988" ry="1.13875256"></ellipse>
                            <ellipse id="Oval-Copy-35" cx="1.13162988" cy="13.2957055" rx="1.13162988" ry="1.13875256"></ellipse>
                            <ellipse id="Oval-Copy-36" cx="32.9639798" cy="1.13875256" rx="1.13162988" ry="1.13875256"></ellipse>
                        </g>
                        <g id="Group-2-Copy" transform="translate(12.732940, -0.000000)">
                            <ellipse id="Oval-Copy-27" cx="18.1834764" cy="38.9791922" rx="1.13162988" ry="1.13875256"></ellipse>
                            <ellipse id="Oval-Copy-31" cx="49.0203905" cy="38.9791922" rx="1.13162988" ry="1.13875256"></ellipse>
                            <ellipse id="Oval-Copy-33" cx="103.57392" cy="34.5703732" rx="1.13162988" ry="1.13875256"></ellipse>
                            <ellipse id="Oval-Copy-35" cx="1.13162988" cy="14.5114008" rx="1.13162988" ry="1.13875256"></ellipse>
                            <ellipse id="Oval-Copy-36" cx="38.7516798" cy="1.13875256" rx="1.13162988" ry="1.13875256"></ellipse>
                        </g>
                    </g>
                    <g id="Group-3-Copy" transform="translate(516.587177, 98.612932) rotate(29.000000) translate(-516.587177, -98.612932) translate(419.087177, 54.112932)" fill="#D8D8D8">
                        <ellipse id="Oval-Copy-8" cx="94.3395097" cy="48.0199642" rx="2.31507999" ry="2.43139059"></ellipse>
                        <ellipse id="Oval-Copy-38" cx="49.1954498" cy="69.9024796" rx="2.31507999" ry="2.43139059"></ellipse>
                        <ellipse id="Oval-Copy-26" cx="153.952819" cy="50.4513548" rx="2.31507999" ry="2.43139059"></ellipse>
                        <ellipse id="Oval-Copy-37" cx="2.31507999" cy="50.4513548" rx="2.31507999" ry="2.43139059"></ellipse>
                        <ellipse id="Oval-Copy-28" cx="21.9932599" cy="62.0004601" rx="2.31507999" ry="2.43139059"></ellipse>
                        <ellipse id="Oval-Copy-29" cx="15.6267899" cy="85.7065184" rx="2.31507999" ry="2.43139059"></ellipse>
                        <ellipse id="Oval-Copy-30" cx="74.0825598" cy="66.8632413" rx="2.31507999" ry="2.43139059"></ellipse>
                        <ellipse id="Oval-Copy-32" cx="130.22325" cy="64.4318507" rx="2.31507999" ry="2.43139059"></ellipse>
                        <ellipse id="Oval-Copy-34" cx="182.891319" cy="66.8632413" rx="2.31507999" ry="2.43139059"></ellipse>
                        <g id="Group-2" transform="translate(82.764110, 0.000000)">
                            <ellipse id="Oval-Copy-27" cx="86.2108196" cy="38.2174591" rx="1.13162988" ry="1.13875256"></ellipse>
                            <ellipse id="Oval-Copy-31" cx="70.0052596" cy="9.04077198" rx="1.13162988" ry="1.13875256"></ellipse>
                            <ellipse id="Oval-Copy-33" cx="110.57098" cy="19.458819" rx="1.13162988" ry="1.13875256"></ellipse>
                            <ellipse id="Oval-Copy-35" cx="1.13162988" cy="13.2957055" rx="1.13162988" ry="1.13875256"></ellipse>
                            <ellipse id="Oval-Copy-36" cx="32.9639798" cy="1.13875256" rx="1.13162988" ry="1.13875256"></ellipse>
                        </g>
                        <g id="Group-2-Copy" transform="translate(12.732940, 0.000000)">
                            <ellipse id="Oval-Copy-27" cx="18.1834764" cy="38.9791922" rx="1.13162988" ry="1.13875256"></ellipse>
                            <ellipse id="Oval-Copy-31" cx="49.0203905" cy="38.9791922" rx="1.13162988" ry="1.13875256"></ellipse>
                            <ellipse id="Oval-Copy-33" cx="103.57392" cy="34.5703732" rx="1.13162988" ry="1.13875256"></ellipse>
                            <ellipse id="Oval-Copy-35" cx="1.13162988" cy="14.5114008" rx="1.13162988" ry="1.13875256"></ellipse>
                            <ellipse id="Oval-Copy-36" cx="38.7516798" cy="1.13875256" rx="1.13162988" ry="1.13875256"></ellipse>
                        </g>
                    </g>
                    <g id="Group-3-Copy-2" transform="translate(651.344552, 250.453340) rotate(69.000000) translate(-651.344552, -250.453340) translate(553.844552, 205.953340)" fill="#D8D8D8">
                        <ellipse id="Oval-Copy-8" cx="94.3395097" cy="48.0199642" rx="2.31507999" ry="2.43139059"></ellipse>
                        <ellipse id="Oval-Copy-38" cx="49.1954498" cy="69.9024796" rx="2.31507999" ry="2.43139059"></ellipse>
                        <ellipse id="Oval-Copy-26" cx="153.952819" cy="50.4513548" rx="2.31507999" ry="2.43139059"></ellipse>
                        <ellipse id="Oval-Copy-37" cx="2.31507999" cy="50.4513548" rx="2.31507999" ry="2.43139059"></ellipse>
                        <ellipse id="Oval-Copy-28" cx="21.9932599" cy="62.0004601" rx="2.31507999" ry="2.43139059"></ellipse>
                        <ellipse id="Oval-Copy-29" cx="15.6267899" cy="85.7065184" rx="2.31507999" ry="2.43139059"></ellipse>
                        <ellipse id="Oval-Copy-30" cx="74.0825598" cy="66.8632413" rx="2.31507999" ry="2.43139059"></ellipse>
                        <ellipse id="Oval-Copy-32" cx="130.22325" cy="64.4318507" rx="2.31507999" ry="2.43139059"></ellipse>
                        <ellipse id="Oval-Copy-34" cx="182.891319" cy="66.8632413" rx="2.31507999" ry="2.43139059"></ellipse>
                        <g id="Group-2" transform="translate(82.764110, -0.000000)">
                            <ellipse id="Oval-Copy-27" cx="86.2108196" cy="38.2174591" rx="1.13162988" ry="1.13875256"></ellipse>
                            <ellipse id="Oval-Copy-31" cx="70.0052596" cy="9.04077198" rx="1.13162988" ry="1.13875256"></ellipse>
                            <ellipse id="Oval-Copy-33" cx="110.57098" cy="19.458819" rx="1.13162988" ry="1.13875256"></ellipse>
                            <ellipse id="Oval-Copy-35" cx="1.13162988" cy="13.2957055" rx="1.13162988" ry="1.13875256"></ellipse>
                            <ellipse id="Oval-Copy-36" cx="32.9639798" cy="1.13875256" rx="1.13162988" ry="1.13875256"></ellipse>
                        </g>
                        <g id="Group-2-Copy" transform="translate(12.732940, 0.000000)">
                            <ellipse id="Oval-Copy-27" cx="18.1834764" cy="38.9791922" rx="1.13162988" ry="1.13875256"></ellipse>
                            <ellipse id="Oval-Copy-31" cx="49.0203905" cy="38.9791922" rx="1.13162988" ry="1.13875256"></ellipse>
                            <ellipse id="Oval-Copy-33" cx="103.57392" cy="34.5703732" rx="1.13162988" ry="1.13875256"></ellipse>
                            <ellipse id="Oval-Copy-35" cx="1.13162988" cy="14.5114008" rx="1.13162988" ry="1.13875256"></ellipse>
                            <ellipse id="Oval-Copy-36" cx="38.7516798" cy="1.13875256" rx="1.13162988" ry="1.13875256"></ellipse>
                        </g>
                    </g>
                </g>
                <g id="外轮廓点">
                    <g id="Group-3" transform="translate(218.437222, 0.000000)">
                        <g id="1" transform="translate(0.000000, 58.295118)" fill="#FFFFFF">
                            <circle id="Oval-Copy-8" cx="163" cy="4" r="4"></circle>
                            <circle id="Oval-Copy-38" cx="85" cy="40" r="4"></circle>
                            <circle id="Oval-Copy-26" cx="266" cy="8" r="4"></circle>
                            <circle id="Oval-Copy-37" cx="4" cy="8" r="4"></circle>
                            <circle id="Oval-Copy-28" cx="38" cy="27" r="4"></circle>
                            <circle id="Oval-Copy-29" cx="27" cy="66" r="4"></circle>
                            <circle id="Oval-Copy-30" cx="128" cy="35" r="4"></circle>
                            <circle id="Oval-Copy-32" cx="225" cy="31" r="4"></circle>
                            <circle id="Oval-Copy-34" cx="316" cy="35" r="4"></circle>
                        </g>
                        <g id="Group-2" transform="translate(82.764110, 0.000000)" fill="#D8D8D8">
                            <ellipse id="Oval-Copy-27" cx="86.2108196" cy="38.2174591" rx="1.13162988" ry="1.13875256"></ellipse>
                            <ellipse id="Oval-Copy-31" cx="70.0052596" cy="9.04077198" rx="1.13162988" ry="1.13875256"></ellipse>
                            <ellipse id="Oval-Copy-33" cx="110.57098" cy="19.458819" rx="1.13162988" ry="1.13875256"></ellipse>
                            <ellipse id="Oval-Copy-35" cx="1.13162988" cy="13.2957055" rx="1.13162988" ry="1.13875256"></ellipse>
                            <ellipse id="Oval-Copy-36" cx="32.9639798" cy="1.13875256" rx="1.13162988" ry="1.13875256"></ellipse>
                        </g>
                        <g id="Group-2-Copy" transform="translate(12.732940, 0.000000)" fill="#D8D8D8">
                            <ellipse id="Oval-Copy-27" cx="18.1834764" cy="38.9791922" rx="1.13162988" ry="1.13875256"></ellipse>
                            <ellipse id="Oval-Copy-31" cx="49.0203905" cy="38.9791922" rx="1.13162988" ry="1.13875256"></ellipse>
                            <ellipse id="Oval-Copy-33" cx="103.57392" cy="34.5703732" rx="1.13162988" ry="1.13875256"></ellipse>
                            <ellipse id="Oval-Copy-35" cx="1.13162988" cy="14.5114008" rx="1.13162988" ry="1.13875256"></ellipse>
                            <ellipse id="Oval-Copy-36" cx="38.7516798" cy="1.13875256" rx="1.13162988" ry="1.13875256"></ellipse>
                        </g>
                    </g>
                    <g id="Group-3-Copy-3" transform="translate(144.524567, 139.068466) rotate(321.000000) translate(-144.524567, -139.068466) translate(47.024567, 94.568466)" fill="#D8D8D8">
                        <ellipse id="Oval-Copy-8" cx="94.3395097" cy="48.0199642" rx="2.31507999" ry="2.43139059"></ellipse>
                        <ellipse id="Oval-Copy-38" cx="49.1954498" cy="69.9024796" rx="2.31507999" ry="2.43139059"></ellipse>
                        <ellipse id="Oval-Copy-26" cx="153.952819" cy="50.4513548" rx="2.31507999" ry="2.43139059"></ellipse>
                        <ellipse id="Oval-Copy-37" cx="2.31507999" cy="50.4513548" rx="2.31507999" ry="2.43139059"></ellipse>
                        <ellipse id="Oval-Copy-28" cx="21.9932599" cy="62.0004601" rx="2.31507999" ry="2.43139059"></ellipse>
                        <ellipse id="Oval-Copy-29" cx="15.6267899" cy="85.7065184" rx="2.31507999" ry="2.43139059"></ellipse>
                        <ellipse id="Oval-Copy-30" cx="74.0825598" cy="66.8632413" rx="2.31507999" ry="2.43139059"></ellipse>
                        <ellipse id="Oval-Copy-32" cx="130.22325" cy="64.4318507" rx="2.31507999" ry="2.43139059"></ellipse>
                        <ellipse id="Oval-Copy-34" cx="182.891319" cy="66.8632413" rx="2.31507999" ry="2.43139059"></ellipse>
                        <g id="Group-2" transform="translate(82.764110, -0.000000)">
                            <ellipse id="Oval-Copy-27" cx="86.2108196" cy="38.2174591" rx="1.13162988" ry="1.13875256"></ellipse>
                            <ellipse id="Oval-Copy-31" cx="70.0052596" cy="9.04077198" rx="1.13162988" ry="1.13875256"></ellipse>
                            <ellipse id="Oval-Copy-33" cx="110.57098" cy="19.458819" rx="1.13162988" ry="1.13875256"></ellipse>
                            <ellipse id="Oval-Copy-35" cx="1.13162988" cy="13.2957055" rx="1.13162988" ry="1.13875256"></ellipse>
                            <ellipse id="Oval-Copy-36" cx="32.9639798" cy="1.13875256" rx="1.13162988" ry="1.13875256"></ellipse>
                        </g>
                        <g id="Group-2-Copy" transform="translate(12.732940, -0.000000)">
                            <ellipse id="Oval-Copy-27" cx="18.1834764" cy="38.9791922" rx="1.13162988" ry="1.13875256"></ellipse>
                            <ellipse id="Oval-Copy-31" cx="49.0203905" cy="38.9791922" rx="1.13162988" ry="1.13875256"></ellipse>
                            <ellipse id="Oval-Copy-33" cx="103.57392" cy="34.5703732" rx="1.13162988" ry="1.13875256"></ellipse>
                            <ellipse id="Oval-Copy-35" cx="1.13162988" cy="14.5114008" rx="1.13162988" ry="1.13875256"></ellipse>
                            <ellipse id="Oval-Copy-36" cx="38.7516798" cy="1.13875256" rx="1.13162988" ry="1.13875256"></ellipse>
                        </g>
                    </g>
                    <g id="Group-3-Copy-4" transform="translate(46.462654, 309.840503) rotate(271.000000) translate(-46.462654, -309.840503) translate(-51.037346, 265.340503)" fill="#D8D8D8">
                        <ellipse id="Oval-Copy-8" cx="94.3395097" cy="48.0199642" rx="2.31507999" ry="2.43139059"></ellipse>
                        <ellipse id="Oval-Copy-38" cx="49.1954498" cy="69.9024796" rx="2.31507999" ry="2.43139059"></ellipse>
                        <ellipse id="Oval-Copy-26" cx="153.952819" cy="50.4513548" rx="2.31507999" ry="2.43139059"></ellipse>
                        <ellipse id="Oval-Copy-37" cx="2.31507999" cy="50.4513548" rx="2.31507999" ry="2.43139059"></ellipse>
                        <ellipse id="Oval-Copy-28" cx="21.9932599" cy="62.0004601" rx="2.31507999" ry="2.43139059"></ellipse>
                        <ellipse id="Oval-Copy-29" cx="15.6267899" cy="85.7065184" rx="2.31507999" ry="2.43139059"></ellipse>
                        <ellipse id="Oval-Copy-30" cx="74.0825598" cy="66.8632413" rx="2.31507999" ry="2.43139059"></ellipse>
                        <ellipse id="Oval-Copy-32" cx="130.22325" cy="64.4318507" rx="2.31507999" ry="2.43139059"></ellipse>
                        <ellipse id="Oval-Copy-34" cx="182.891319" cy="66.8632413" rx="2.31507999" ry="2.43139059"></ellipse>
                        <g id="Group-2" transform="translate(82.764110, -0.000000)">
                            <ellipse id="Oval-Copy-27" cx="86.2108196" cy="38.2174591" rx="1.13162988" ry="1.13875256"></ellipse>
                            <ellipse id="Oval-Copy-31" cx="70.0052596" cy="9.04077198" rx="1.13162988" ry="1.13875256"></ellipse>
                            <ellipse id="Oval-Copy-33" cx="110.57098" cy="19.458819" rx="1.13162988" ry="1.13875256"></ellipse>
                            <ellipse id="Oval-Copy-35" cx="1.13162988" cy="13.2957055" rx="1.13162988" ry="1.13875256"></ellipse>
                            <ellipse id="Oval-Copy-36" cx="32.9639798" cy="1.13875256" rx="1.13162988" ry="1.13875256"></ellipse>
                        </g>
                        <g id="Group-2-Copy" transform="translate(12.732940, -0.000000)">
                            <ellipse id="Oval-Copy-27" cx="18.1834764" cy="38.9791922" rx="1.13162988" ry="1.13875256"></ellipse>
                            <ellipse id="Oval-Copy-31" cx="49.0203905" cy="38.9791922" rx="1.13162988" ry="1.13875256"></ellipse>
                            <ellipse id="Oval-Copy-33" cx="103.57392" cy="34.5703732" rx="1.13162988" ry="1.13875256"></ellipse>
                            <ellipse id="Oval-Copy-35" cx="1.13162988" cy="14.5114008" rx="1.13162988" ry="1.13875256"></ellipse>
                            <ellipse id="Oval-Copy-36" cx="38.7516798" cy="1.13875256" rx="1.13162988" ry="1.13875256"></ellipse>
                        </g>
                    </g>
                    <g id="Group-3-Copy" transform="translate(516.587177, 98.612932) rotate(29.000000) translate(-516.587177, -98.612932) translate(419.087177, 54.112932)" fill="#D8D8D8">
                        <ellipse id="Oval-Copy-8" cx="94.3395097" cy="48.0199642" rx="2.31507999" ry="2.43139059"></ellipse>
                        <ellipse id="Oval-Copy-38" cx="49.1954498" cy="69.9024796" rx="2.31507999" ry="2.43139059"></ellipse>
                        <ellipse id="Oval-Copy-26" cx="153.952819" cy="50.4513548" rx="2.31507999" ry="2.43139059"></ellipse>
                        <ellipse id="Oval-Copy-37" cx="2.31507999" cy="50.4513548" rx="2.31507999" ry="2.43139059"></ellipse>
                        <ellipse id="Oval-Copy-28" cx="21.9932599" cy="62.0004601" rx="2.31507999" ry="2.43139059"></ellipse>
                        <ellipse id="Oval-Copy-29" cx="15.6267899" cy="85.7065184" rx="2.31507999" ry="2.43139059"></ellipse>
                        <ellipse id="Oval-Copy-30" cx="74.0825598" cy="66.8632413" rx="2.31507999" ry="2.43139059"></ellipse>
                        <ellipse id="Oval-Copy-32" cx="130.22325" cy="64.4318507" rx="2.31507999" ry="2.43139059"></ellipse>
                        <ellipse id="Oval-Copy-34" cx="182.891319" cy="66.8632413" rx="2.31507999" ry="2.43139059"></ellipse>
                        <g id="Group-2" transform="translate(82.764110, -0.000000)">
                            <ellipse id="Oval-Copy-27" cx="86.2108196" cy="38.2174591" rx="1.13162988" ry="1.13875256"></ellipse>
                            <ellipse id="Oval-Copy-31" cx="70.0052596" cy="9.04077198" rx="1.13162988" ry="1.13875256"></ellipse>
                            <ellipse id="Oval-Copy-33" cx="110.57098" cy="19.458819" rx="1.13162988" ry="1.13875256"></ellipse>
                            <ellipse id="Oval-Copy-35" cx="1.13162988" cy="13.2957055" rx="1.13162988" ry="1.13875256"></ellipse>
                            <ellipse id="Oval-Copy-36" cx="32.9639798" cy="1.13875256" rx="1.13162988" ry="1.13875256"></ellipse>
                        </g>
                        <g id="Group-2-Copy" transform="translate(12.732940, 0.000000)">
                            <ellipse id="Oval-Copy-27" cx="18.1834764" cy="38.9791922" rx="1.13162988" ry="1.13875256"></ellipse>
                            <ellipse id="Oval-Copy-31" cx="49.0203905" cy="38.9791922" rx="1.13162988" ry="1.13875256"></ellipse>
                            <ellipse id="Oval-Copy-33" cx="103.57392" cy="34.5703732" rx="1.13162988" ry="1.13875256"></ellipse>
                            <ellipse id="Oval-Copy-35" cx="1.13162988" cy="14.5114008" rx="1.13162988" ry="1.13875256"></ellipse>
                            <ellipse id="Oval-Copy-36" cx="38.7516798" cy="1.13875256" rx="1.13162988" ry="1.13875256"></ellipse>
                        </g>
                    </g>
                    <g id="Group-3-Copy-2" transform="translate(651.344552, 250.453340) rotate(69.000000) translate(-651.344552, -250.453340) translate(553.844552, 205.953340)" fill="#D8D8D8">
                        <ellipse id="Oval-Copy-8" cx="94.3395097" cy="48.0199642" rx="2.31507999" ry="2.43139059"></ellipse>
                        <ellipse id="Oval-Copy-38" cx="49.1954498" cy="69.9024796" rx="2.31507999" ry="2.43139059"></ellipse>
                        <ellipse id="Oval-Copy-26" cx="153.952819" cy="50.4513548" rx="2.31507999" ry="2.43139059"></ellipse>
                        <ellipse id="Oval-Copy-37" cx="2.31507999" cy="50.4513548" rx="2.31507999" ry="2.43139059"></ellipse>
                        <ellipse id="Oval-Copy-28" cx="21.9932599" cy="62.0004601" rx="2.31507999" ry="2.43139059"></ellipse>
                        <ellipse id="Oval-Copy-29" cx="15.6267899" cy="85.7065184" rx="2.31507999" ry="2.43139059"></ellipse>
                        <ellipse id="Oval-Copy-30" cx="74.0825598" cy="66.8632413" rx="2.31507999" ry="2.43139059"></ellipse>
                        <ellipse id="Oval-Copy-32" cx="130.22325" cy="64.4318507" rx="2.31507999" ry="2.43139059"></ellipse>
                        <ellipse id="Oval-Copy-34" cx="182.891319" cy="66.8632413" rx="2.31507999" ry="2.43139059"></ellipse>
                        <g id="Group-2" transform="translate(82.764110, -0.000000)">
                            <ellipse id="Oval-Copy-27" cx="86.2108196" cy="38.2174591" rx="1.13162988" ry="1.13875256"></ellipse>
                            <ellipse id="Oval-Copy-31" cx="70.0052596" cy="9.04077198" rx="1.13162988" ry="1.13875256"></ellipse>
                            <ellipse id="Oval-Copy-33" cx="110.57098" cy="19.458819" rx="1.13162988" ry="1.13875256"></ellipse>
                            <ellipse id="Oval-Copy-35" cx="1.13162988" cy="13.2957055" rx="1.13162988" ry="1.13875256"></ellipse>
                            <ellipse id="Oval-Copy-36" cx="32.9639798" cy="1.13875256" rx="1.13162988" ry="1.13875256"></ellipse>
                        </g>
                        <g id="Group-2-Copy" transform="translate(12.732940, -0.000000)">
                            <ellipse id="Oval-Copy-27" cx="18.1834764" cy="38.9791922" rx="1.13162988" ry="1.13875256"></ellipse>
                            <ellipse id="Oval-Copy-31" cx="49.0203905" cy="38.9791922" rx="1.13162988" ry="1.13875256"></ellipse>
                            <ellipse id="Oval-Copy-33" cx="103.57392" cy="34.5703732" rx="1.13162988" ry="1.13875256"></ellipse>
                            <ellipse id="Oval-Copy-35" cx="1.13162988" cy="14.5114008" rx="1.13162988" ry="1.13875256"></ellipse>
                            <ellipse id="Oval-Copy-36" cx="38.7516798" cy="1.13875256" rx="1.13162988" ry="1.13875256"></ellipse>
                        </g>
                    </g>
                </g>
                <g id="内部点" transform="translate(89.431279, 61.553170)" fill="#D8D8D8">
                    <g id="Group-3-Copy-2" transform="translate(71.474364, 179.562579) rotate(467.000000) translate(-71.474364, -179.562579) translate(-26.025636, 135.062579)">
                        <ellipse id="Oval-Copy-8" cx="94.3395097" cy="48.0199642" rx="2.31507999" ry="2.43139059"></ellipse>
                        <ellipse id="Oval-Copy-38" cx="49.1954498" cy="69.9024796" rx="2.31507999" ry="2.43139059"></ellipse>
                        <ellipse id="Oval-Copy-26" cx="153.952819" cy="50.4513548" rx="2.31507999" ry="2.43139059"></ellipse>
                        <ellipse id="Oval-Copy-37" cx="2.31507999" cy="50.4513548" rx="2.31507999" ry="2.43139059"></ellipse>
                        <ellipse id="Oval-Copy-28" cx="21.9932599" cy="62.0004601" rx="2.31507999" ry="2.43139059"></ellipse>
                        <ellipse id="Oval-Copy-29" cx="15.6267899" cy="85.7065184" rx="2.31507999" ry="2.43139059"></ellipse>
                        <ellipse id="Oval-Copy-30" cx="74.0825598" cy="66.8632413" rx="2.31507999" ry="2.43139059"></ellipse>
                        <ellipse id="Oval-Copy-32" cx="130.22325" cy="64.4318507" rx="2.31507999" ry="2.43139059"></ellipse>
                        <ellipse id="Oval-Copy-34" cx="182.891319" cy="66.8632413" rx="2.31507999" ry="2.43139059"></ellipse>
                        <g id="Group-2" transform="translate(82.764110, -0.000000)">
                            <ellipse id="Oval-Copy-27" cx="86.2108196" cy="38.2174591" rx="1.13162988" ry="1.13875256"></ellipse>
                            <ellipse id="Oval-Copy-31" cx="70.0052596" cy="9.04077198" rx="1.13162988" ry="1.13875256"></ellipse>
                            <ellipse id="Oval-Copy-33" cx="110.57098" cy="19.458819" rx="1.13162988" ry="1.13875256"></ellipse>
                            <ellipse id="Oval-Copy-35" cx="1.13162988" cy="13.2957055" rx="1.13162988" ry="1.13875256"></ellipse>
                            <ellipse id="Oval-Copy-36" cx="32.9639798" cy="1.13875256" rx="1.13162988" ry="1.13875256"></ellipse>
                        </g>
                        <g id="Group-2-Copy" transform="translate(29.101510, 0.000000)">
                            <ellipse id="Oval-Copy-27" cx="1.81490665" cy="38.9791922" rx="1.13162988" ry="1.13875256"></ellipse>
                            <ellipse id="Oval-Copy-31" cx="32.6518208" cy="38.9791922" rx="1.13162988" ry="1.13875256"></ellipse>
                            <ellipse id="Oval-Copy-33" cx="87.2053498" cy="34.5703732" rx="1.13162988" ry="1.13875256"></ellipse>
                            <ellipse id="Oval-Copy-35" cx="38.850508" cy="61.6816973" rx="1.13162988" ry="1.13875256"></ellipse>
                            <ellipse id="Oval-Copy-36" cx="22.38311" cy="1.13875256" rx="1.13162988" ry="1.13875256"></ellipse>
                        </g>
                    </g>
                    <g id="Group-3-Copy-5" transform="translate(168.053830, 79.669148) rotate(533.000000) translate(-168.053830, -79.669148) translate(20.553830, 29.169148)">
                        <ellipse id="Oval-Copy-8" cx="123.31077" cy="57.5600481" rx="2.31507999" ry="2.43139059"></ellipse>
                        <ellipse id="Oval-Copy-38" cx="49.1954498" cy="81.8615798" rx="2.31507999" ry="2.43139059"></ellipse>
                        <ellipse id="Oval-Copy-26" cx="153.952819" cy="62.410455" rx="2.31507999" ry="2.43139059"></ellipse>
                        <ellipse id="Oval-Copy-37" cx="2.31507999" cy="62.410455" rx="2.31507999" ry="2.43139059"></ellipse>
                        <ellipse id="Oval-Copy-28" cx="21.9932599" cy="73.9595603" rx="2.31507999" ry="2.43139059"></ellipse>
                        <ellipse id="Oval-Copy-29" cx="15.6267899" cy="97.6656186" rx="2.31507999" ry="2.43139059"></ellipse>
                        <ellipse id="Oval-Copy-30" cx="74.0825598" cy="78.8223415" rx="2.31507999" ry="2.43139059"></ellipse>
                        <ellipse id="Oval-Copy-32" cx="132.551961" cy="79.4180982" rx="2.31507999" ry="2.43139059"></ellipse>
                        <ellipse id="Oval-Copy-34" cx="182.891319" cy="78.8223415" rx="2.31507999" ry="2.43139059"></ellipse>
                        <g id="Group-2" transform="translate(82.764110, 0.000000)">
                            <ellipse id="Oval-Copy-27" cx="65.2164149" cy="75.8859145" rx="1.87716676" ry="1.88898199"></ellipse>
                            <ellipse id="Oval-Copy-39" cx="2.58884371" cy="92.3296773" rx="1.87716676" ry="1.88898199"></ellipse>
                            <ellipse id="Oval-Copy-31" cx="210.364652" cy="1.13875256" rx="1.13162988" ry="1.13875256"></ellipse>
                            <ellipse id="Oval-Copy-33" cx="110.57098" cy="31.4179192" rx="1.13162988" ry="1.13875256"></ellipse>
                            <ellipse id="Oval-Copy-35" cx="1.13162988" cy="25.2548057" rx="1.13162988" ry="1.13875256"></ellipse>
                            <ellipse id="Oval-Copy-36" cx="32.9639798" cy="13.0978528" rx="1.13162988" ry="1.13875256"></ellipse>
                        </g>
                        <g id="Group-2-Copy" transform="translate(12.732940, 11.959100)">
                            <ellipse id="Oval-Copy-27" cx="18.1834764" cy="38.9791922" rx="1.13162988" ry="1.13875256"></ellipse>
                            <ellipse id="Oval-Copy-31" cx="49.0203905" cy="38.9791922" rx="1.13162988" ry="1.13875256"></ellipse>
                            <ellipse id="Oval-Copy-33" cx="103.57392" cy="34.5703732" rx="1.13162988" ry="1.13875256"></ellipse>
                            <ellipse id="Oval-Copy-35" cx="1.13162988" cy="14.5114008" rx="1.13162988" ry="1.13875256"></ellipse>
                            <ellipse id="Oval-Copy-36" cx="38.7516798" cy="1.13875256" rx="1.13162988" ry="1.13875256"></ellipse>
                        </g>
                    </g>
                    <g id="Group-3-Copy-6" transform="translate(399.810554, 105.613193) rotate(221.000000) translate(-399.810554, -105.613193) translate(291.310554, 60.113193)">
                        <ellipse id="Oval-Copy-8" cx="94.3395097" cy="48.0199642" rx="2.31507999" ry="2.43139059"></ellipse>
                        <ellipse id="Oval-Copy-38" cx="78.4645132" cy="88.3874233" rx="2.31507999" ry="2.43139059"></ellipse>
                        <ellipse id="Oval-Copy-26" cx="153.952819" cy="50.4513548" rx="2.31507999" ry="2.43139059"></ellipse>
                        <ellipse id="Oval-Copy-37" cx="2.31507999" cy="50.4513548" rx="2.31507999" ry="2.43139059"></ellipse>
                        <ellipse id="Oval-Copy-28" cx="21.9932599" cy="62.0004601" rx="2.31507999" ry="2.43139059"></ellipse>
                        <ellipse id="Oval-Copy-29" cx="15.6267899" cy="85.7065184" rx="2.31507999" ry="2.43139059"></ellipse>
                        <ellipse id="Oval-Copy-30" cx="74.0825598" cy="66.8632413" rx="2.31507999" ry="2.43139059"></ellipse>
                        <ellipse id="Oval-Copy-32" cx="130.22325" cy="64.4318507" rx="2.31507999" ry="2.43139059"></ellipse>
                        <ellipse id="Oval-Copy-34" cx="182.891319" cy="66.8632413" rx="2.31507999" ry="2.43139059"></ellipse>
                        <g id="Group-2" transform="translate(82.764110, 0.000000)">
                            <ellipse id="Oval-Copy-27" cx="132.080188" cy="46.7328221" rx="1.13162988" ry="1.13875256"></ellipse>
                            <ellipse id="Oval-Copy-31" cx="70.0052596" cy="9.04077198" rx="1.13162988" ry="1.13875256"></ellipse>
                            <ellipse id="Oval-Copy-33" cx="110.57098" cy="19.458819" rx="1.13162988" ry="1.13875256"></ellipse>
                            <ellipse id="Oval-Copy-35" cx="1.13162988" cy="13.2957055" rx="1.13162988" ry="1.13875256"></ellipse>
                            <ellipse id="Oval-Copy-36" cx="32.9639798" cy="1.13875256" rx="1.13162988" ry="1.13875256"></ellipse>
                        </g>
                        <g id="Group-2-Copy" transform="translate(12.732940, -0.000000)">
                            <ellipse id="Oval-Copy-27" cx="18.1834764" cy="38.9791922" rx="1.13162988" ry="1.13875256"></ellipse>
                            <ellipse id="Oval-Copy-31" cx="49.0203905" cy="38.9791922" rx="1.13162988" ry="1.13875256"></ellipse>
                            <ellipse id="Oval-Copy-33" cx="103.57392" cy="34.5703732" rx="1.13162988" ry="1.13875256"></ellipse>
                            <ellipse id="Oval-Copy-35" cx="1.13162988" cy="14.5114008" rx="1.13162988" ry="1.13875256"></ellipse>
                            <ellipse id="Oval-Copy-36" cx="38.7516798" cy="1.13875256" rx="1.13162988" ry="1.13875256"></ellipse>
                        </g>
                    </g>
                    <g id="Group-3-Copy-7" transform="translate(315.406622, 183.013418) rotate(221.000000) translate(-315.406622, -183.013418) translate(198.406622, 126.513418)">
                        <ellipse id="Oval-Copy-8" cx="94.3395097" cy="72.6856084" rx="2.31507999" ry="2.43139059"></ellipse>
                        <ellipse id="Oval-Copy-38" cx="49.1954498" cy="94.5681237" rx="2.31507999" ry="2.43139059"></ellipse>
                        <ellipse id="Oval-Copy-26" cx="153.952819" cy="75.116999" rx="2.31507999" ry="2.43139059"></ellipse>
                        <ellipse id="Oval-Copy-37" cx="2.31507999" cy="75.116999" rx="2.31507999" ry="2.43139059"></ellipse>
                        <ellipse id="Oval-Copy-28" cx="21.9932599" cy="86.6661043" rx="2.31507999" ry="2.43139059"></ellipse>
                        <ellipse id="Oval-Copy-29" cx="15.6267899" cy="110.372163" rx="2.31507999" ry="2.43139059"></ellipse>
                        <ellipse id="Oval-Copy-30" cx="74.0825598" cy="91.5288855" rx="2.31507999" ry="2.43139059"></ellipse>
                        <ellipse id="Oval-Copy-32" cx="130.22325" cy="89.0974949" rx="2.31507999" ry="2.43139059"></ellipse>
                        <ellipse id="Oval-Copy-34" cx="230.76338" cy="2.43139059" rx="2.31507999" ry="2.43139059"></ellipse>
                        <g id="Group-2" transform="translate(82.764110, 24.665644)">
                            <ellipse id="Oval-Copy-27" cx="86.2108196" cy="38.2174591" rx="1.13162988" ry="1.13875256"></ellipse>
                            <ellipse id="Oval-Copy-31" cx="70.0052596" cy="9.04077198" rx="1.13162988" ry="1.13875256"></ellipse>
                            <ellipse id="Oval-Copy-33" cx="110.57098" cy="19.458819" rx="1.13162988" ry="1.13875256"></ellipse>
                            <ellipse id="Oval-Copy-35" cx="1.13162988" cy="13.2957055" rx="1.13162988" ry="1.13875256"></ellipse>
                            <ellipse id="Oval-Copy-36" cx="32.9639798" cy="1.13875256" rx="1.13162988" ry="1.13875256"></ellipse>
                        </g>
                        <g id="Group-2-Copy" transform="translate(12.732940, 24.665644)">
                            <ellipse id="Oval-Copy-27" cx="18.1834764" cy="38.9791922" rx="1.13162988" ry="1.13875256"></ellipse>
                            <ellipse id="Oval-Copy-31" cx="49.0203905" cy="38.9791922" rx="1.13162988" ry="1.13875256"></ellipse>
                            <ellipse id="Oval-Copy-33" cx="103.57392" cy="34.5703732" rx="1.13162988" ry="1.13875256"></ellipse>
                            <ellipse id="Oval-Copy-35" cx="1.13162988" cy="14.5114008" rx="1.13162988" ry="1.13875256"></ellipse>
                            <ellipse id="Oval-Copy-36" cx="38.7516798" cy="1.13875256" rx="1.13162988" ry="1.13875256"></ellipse>
                        </g>
                    </g>
                    <g id="Group-3-Copy-8" transform="translate(199.130347, 235.503358) rotate(221.000000) translate(-199.130347, -235.503358) translate(101.630347, 191.003358)">
                        <ellipse id="Oval-Copy-8" cx="94.3395097" cy="48.0199642" rx="2.31507999" ry="2.43139059"></ellipse>
                        <ellipse id="Oval-Copy-38" cx="49.1954498" cy="69.9024796" rx="2.31507999" ry="2.43139059"></ellipse>
                        <ellipse id="Oval-Copy-26" cx="153.952819" cy="50.4513548" rx="2.31507999" ry="2.43139059"></ellipse>
                        <ellipse id="Oval-Copy-37" cx="2.31507999" cy="50.4513548" rx="2.31507999" ry="2.43139059"></ellipse>
                        <ellipse id="Oval-Copy-28" cx="21.9932599" cy="62.0004601" rx="2.31507999" ry="2.43139059"></ellipse>
                        <ellipse id="Oval-Copy-29" cx="15.6267899" cy="85.7065184" rx="2.31507999" ry="2.43139059"></ellipse>
                        <ellipse id="Oval-Copy-30" cx="74.0825598" cy="66.8632413" rx="2.31507999" ry="2.43139059"></ellipse>
                        <ellipse id="Oval-Copy-32" cx="130.22325" cy="64.4318507" rx="2.31507999" ry="2.43139059"></ellipse>
                        <ellipse id="Oval-Copy-34" cx="182.891319" cy="66.8632413" rx="2.31507999" ry="2.43139059"></ellipse>
                        <g id="Group-2" transform="translate(82.764110, -0.000000)">
                            <ellipse id="Oval-Copy-27" cx="86.2108196" cy="38.2174591" rx="1.13162988" ry="1.13875256"></ellipse>
                            <ellipse id="Oval-Copy-31" cx="70.0052596" cy="9.04077198" rx="1.13162988" ry="1.13875256"></ellipse>
                            <ellipse id="Oval-Copy-33" cx="110.57098" cy="19.458819" rx="1.13162988" ry="1.13875256"></ellipse>
                            <ellipse id="Oval-Copy-35" cx="1.13162988" cy="13.2957055" rx="1.13162988" ry="1.13875256"></ellipse>
                            <ellipse id="Oval-Copy-36" cx="32.9639798" cy="1.13875256" rx="1.13162988" ry="1.13875256"></ellipse>
                        </g>
                        <g id="Group-2-Copy" transform="translate(12.732940, 0.000000)">
                            <ellipse id="Oval-Copy-27" cx="18.1834764" cy="38.9791922" rx="1.13162988" ry="1.13875256"></ellipse>
                            <ellipse id="Oval-Copy-31" cx="49.0203905" cy="38.9791922" rx="1.13162988" ry="1.13875256"></ellipse>
                            <ellipse id="Oval-Copy-33" cx="103.57392" cy="34.5703732" rx="1.13162988" ry="1.13875256"></ellipse>
                            <ellipse id="Oval-Copy-35" cx="1.13162988" cy="14.5114008" rx="1.13162988" ry="1.13875256"></ellipse>
                            <ellipse id="Oval-Copy-36" cx="38.7516798" cy="1.13875256" rx="1.13162988" ry="1.13875256"></ellipse>
                        </g>
                    </g>
                </g>
            </g>
        </g>
    </g>
</svg>